<?xml version="1.0" encoding="UTF-8" standalone="no"?><!DOCTYPE svg PUBLIC "-//W3C//DTD SVG 1.1//EN" "http://www.w3.org/Graphics/SVG/1.1/DTD/svg11.dtd"><svg width="100%" height="100%" viewBox="0 0 2430 1830" version="1.1" xmlns="http://www.w3.org/2000/svg" xmlns:xlink="http://www.w3.org/1999/xlink" xml:space="preserve" xmlns:serif="http://www.serif.com/" style="fill-rule:evenodd;clip-rule:evenodd;stroke-linejoin:round;stroke-miterlimit:2;"><g><path d="M2285.69,1023.44c-11.655,-11.03 -23.984,-21.78 -36.996,-32.255l-176.438,-149.587c-69.487,-49.429 -151.296,-78.721 -236.366,-84.634l9.591,9.596l-9.591,-9.596l-97.425,-98.087l-0.884,0c-30.879,-28.175 -71.208,-43.812 -113.016,-43.812c-72.517,-0 -137.192,47.045 -159.521,116.041c-22.079,-14.021 -47.384,-22.162 -73.496,-23.654c-4.3,-0.442 -8.988,-0.442 -13.288,-0.442c-29.358,0.063 -58.116,8.375 -82.979,23.988c-22.608,-68.688 -87.162,-115.409 -159.475,-115.409c-41.787,0 -82.104,15.605 -113.008,43.73l-0.883,-0l-97.534,98.308l-9.596,9.592l9.596,-9.592c-85.054,6.05 -166.829,35.35 -236.371,84.688l-176.158,149.587c-13.025,9.908 -25.383,20.667 -36.996,32.196c-91.258,88.075 -142.862,209.6 -142.862,336.425c-0,256.496 211.062,467.554 467.554,467.554c234.942,0 435.237,-177.083 464.029,-410.25c72.054,41.246 160.842,41.246 232.896,0c29.229,232.779 229.354,409.346 463.962,409.346c256.525,-0 467.613,-211.088 467.613,-467.608c-0,-126.592 -51.408,-247.909 -142.358,-335.963l-0,-0.162Zm-1486.03,655.566l-0.054,0c-174.975,0 -318.962,-143.983 -318.962,-318.962c-0,-174.979 143.987,-318.963 318.962,-318.963c174.979,0 318.963,143.984 318.963,318.963l-0,0.054c-0,174.896 -143.9,318.821 -318.796,318.854l-0.113,0.054Zm1161.33,0l-0.054,0c-174.98,0 -318.963,-143.983 -318.963,-318.962c0,-174.98 143.983,-318.963 318.963,-318.963c174.975,0 318.962,143.983 318.962,318.963l0,0.108c0,174.846 -143.842,318.737 -318.687,318.8l-0.221,0.054Z" style="fill:#334155;fill-rule:nonzero;"/><g id="Objects"><path id="Bird-46" d="M778.796,821.379c4.646,1.109 7.829,-0.866 11.125,-2.079c10.383,-3.771 20.296,-6.346 29.358,4.817c4.071,5 9.946,3.504 15.004,1.175c15.8,-7.254 31.625,-6.317 47.584,0.487c7.05,3.013 14.816,2.775 21.695,4.913c17.1,5.283 35.217,10.225 44.296,31.033c4.138,9.508 10.829,13.738 19.942,12.454c18.833,-2.637 18.825,-2.716 24.392,16.484c9.687,-12.925 1.812,-39.809 -12.734,-43.463c-16.391,-4.096 -25.254,-8.621 -41.062,-21.079c6.129,-4.454 12.237,-2.625 18.091,-0.708c13.784,4.516 27.55,7.766 41.921,5.554c5.646,-0.554 10.859,-3.467 14.625,-8.167c11.659,-14.638 11.779,-14.433 28.067,-7.837c3.842,1.558 7.475,4.633 13.737,3.416c-9.108,-9.925 -18.05,-18.629 -28.95,-20.975c-11.708,-2.517 -22.245,-7.841 -33.091,-12.579c-10.163,-4.458 -19.325,-4.308 -29.367,1.596c-14.796,8.692 -31.65,10.179 -48.275,11.341c-4.092,0.296 -7.479,-2.195 -10.842,-4.554c-27.45,-19.333 -51.195,-44.016 -75.766,-67.533c-6.704,-6.404 -6.15,-10.017 2.071,-13.575c15.404,-6.675 29.129,-17.167 43.629,-25.9c19.437,-11.692 39.608,-21.804 60.366,-30.275c74.609,-30.396 115.471,-90.179 125.646,-179.079c5.746,-50.538 7.342,-101.763 17.85,-151.517c5.554,-26.237 12.679,-52.146 14.546,-79.362c0.392,-5.842 3.533,-10.034 7.804,-13.429c20.109,-15.876 40.338,-31.48 64.242,-39.763c1.662,-0.65 3.262,-1.475 4.783,-2.467c1.817,-1.12 4.163,-2.241 4,-4.933c-0.154,-3.742 -3.262,-3.804 -5.562,-4.3c-17.838,-4.004 -36.096,-4.358 -53.9,-1.042c-10.267,1.884 -16.017,-0.983 -21.863,-10.862c-10.521,-17.808 -25.487,-30.621 -42.383,-40.013c-42.337,-23.383 -83.067,-50.329 -127.925,-67.416c-26.529,-10.104 -50.204,-26.917 -71.288,-48.25c-4.35,-4.175 -8.979,-7.963 -13.837,-11.338c-3.55,-2.621 -7.204,-3.441 -10.342,0.954c-3.133,4.392 -2.529,8.755 0.821,12.88c2.596,3.204 5.221,6.391 8.6,10.516c-6.021,-0.85 -8.517,-7.262 -14.633,-7.408c1.958,14.654 8.537,26.346 17.121,39.221c-7.067,-2.267 -10.771,-8.984 -18.03,-8.713c5.809,24.025 20.721,39.729 38.888,55.021c-9.233,2.233 -15.55,-1.867 -22.033,-3.512c-6.488,-1.646 -12.942,-4.53 -19.48,-5.988c-9.795,-2.15 -12.408,1.75 -9.058,12.371c0.913,2.933 3.696,5.017 3.113,9.604c-7.85,-0.829 -14.171,-6.692 -21.509,-8.721c-3.766,-1.054 -7.991,-3.171 -10.783,0.992c-3.183,4.825 0.237,9.075 2.646,12.942c3.204,5.062 8.116,7.658 12.658,11c6.25,4.616 11.796,9.679 8.763,20.225c-2.505,8.72 3.029,14.558 9.291,18.216c6.621,3.942 7.713,8.371 3.667,15.171c-2.45,4.338 -4.583,8.9 -6.375,13.642c-10.433,26.079 -26.892,43.283 -51.258,53.946c-79.53,34.854 -151.613,85.425 -223.863,135.466c-17.908,12.396 -36.346,23.879 -53.908,36.867c-22.521,16.658 -47.438,24.242 -73.954,28.971c-62.175,11.091 -125.046,13.608 -187.8,18.391c-57.842,4.396 -115.542,10.28 -172.1,24.463c-9.971,2.691 -19.713,6.283 -29.142,10.737c-8.388,3.771 -15.092,10.042 -17.542,20.617c-1.55,6.737 0.563,11.175 7.234,11.188c5.287,0.025 10.587,-0.43 15.929,-0.921c45.75,-4.125 90.941,-14 137.158,-13.521c36.438,0.391 72.838,-2.146 109.342,1.483c10.904,1.092 21.821,2.15 32.712,3.454c2.946,0.355 7.429,-0.32 8.154,3.946c0.605,3.571 -3.612,4.092 -5.941,5.675c-19.409,13.171 -34.813,31.55 -50.467,49.588c-1.379,1.787 -2.529,3.791 -3.412,5.95c-1.842,3.896 -3.696,8.121 -1.292,12.416c2.404,4.292 6.933,3.813 10.679,3.221c19.317,-3.062 37.538,-10.625 55.921,-17.192c23.833,-8.808 49.6,-9.454 74.087,-1.87c15.242,4.716 28.492,12.316 34.6,32.175c4.3,13.991 17.742,21.625 27.142,31.837c13.654,14.846 31.217,23.896 47.329,35.104c34.846,24.225 71.163,39.609 112.342,39.792c13.108,0.033 26.321,6.283 39.396,10.075c10.616,2.904 19.404,11.558 23.425,23.067c12.371,33.062 27.521,64.633 41.575,96.8c1.275,2.883 2.341,5.879 3.183,8.954c2.888,10.662 -0.004,15.792 -9.579,15.237c-10.563,-0.679 -21.038,-1.708 -31.079,-7.033c-17.054,-9.079 -43.054,-2.337 -52.988,13.775c4.984,-0.458 9.409,-0.454 13.675,-1.258c7.142,-1.5 13.288,-0.696 18.159,6.371c3.608,5.191 8.108,6.112 13.225,3.02c1.82,-1.087 4.237,-3.008 5.72,-2.404c15.025,6.167 31.675,3.584 46.075,10.2c16.892,7.779 23.284,27.742 29.188,45.396c4.596,13.704 4.921,28.788 16.317,39.358c5.379,4.98 4.47,15.05 12.029,23.621c-1.834,-15.212 3.571,-25.958 5.346,-37.691c1.2,-7.992 -2.53,-15.13 -8.08,-20.059c-10.445,-9.275 -11.75,-22.971 -15.416,-36.096c18.3,15.013 39.483,22.905 58.404,35.638c10.304,6.929 20.542,11.392 32.254,7.646c6.883,-2.279 12.421,1.266 18.133,4.646l14.163,8.341c-0.725,-6.154 -3.533,-11.808 -7.825,-15.762c-12.408,-12.046 -24.279,-24.438 -42.025,-26.763c-15.458,-2.021 -29.146,-11.033 -43.754,-22.346c18.95,-3.854 35.625,-7.316 53.046,-4.416c10.925,1.796 21.133,1.5 31.066,-6.684c7.392,-6.083 17.646,-3.366 26.692,-0.295c2.617,0.9 4.721,3.82 9.071,2.333c-3.379,-6.15 -7.509,-10.85 -13.059,-13.254c-23.241,-10.342 -46.52,-16.459 -71.141,-6.646c-24.625,9.812 -48.704,5.583 -71.792,-8.758c-5.679,-3.459 -10.5,-8.5 -13.996,-14.634c-19.679,-34.125 -30.925,-72.5 -45.179,-109.379c-1.721,-4.437 -0.358,-6.754 3.154,-8.283c2.925,-1.292 5.846,-3.734 8.792,-3.675c20.412,0.312 38.771,-7.654 57.217,-15.267c16.725,-6.896 30.875,-4.371 45.054,9.688c18.808,18.641 39.241,35.154 58.737,52.862c2.617,2.363 7.967,3.996 5.538,9.875c-1.742,4.6 -6.167,7.146 -10.554,6.063c-13.392,-3.138 -26.692,0.937 -40.167,-0.396c-20.421,-1.846 -34.033,4.021 -45.204,17.162Zm223.562,-26.654l0.017,2.567c-5.725,2.504 -11.358,5.379 -17.246,7.387c-3.075,1.059 -6.883,2.746 -9.667,-0.758c-0.787,-0.983 -0.2,-3.754 0.28,-5.513c1.304,-4.983 4.716,-6.354 8.991,-5.775c5.838,0.605 11.734,1.363 17.625,2.092Z" style="fill:#334155;fill-rule:nonzero;"/></g></g></svg>