<svg id="Layer_1" data-name="Layer 1" xmlns="http://www.w3.org/2000/svg" viewBox="0 0 380.15 219.96"><defs><style>.cls-1{fill:#231f20;}</style></defs><title>binoculars</title><path class="cls-1" d="M470.25,299.21q-3.17-3-6.71-5.85l-32-27.13a84,84,0,0,0-42.87-15.35l1.74,1.74-1.74-1.74h0L371,233.09h-.16a30.41,30.41,0,0,0-49.43,13.1,27.82,27.82,0,0,0-13.33-4.29c-.78-.08-1.63-.08-2.41-.08a28.41,28.41,0,0,0-15.05,4.35,30.45,30.45,0,0,0-49.42-13h-.16L223.35,251h0l-1.74,1.74,1.74-1.74a84.44,84.44,0,0,0-42.87,15.36l-31.95,27.13a67.8,67.8,0,0,0-6.71,5.84,84.8,84.8,0,1,0,143.05,71.41,42.51,42.51,0,0,0,42.24,0,84.81,84.81,0,1,0,143.14-71.5ZM200.73,418.11a57.85,57.85,0,1,1,57.84-57.85h0a57.83,57.83,0,0,1-57.82,57.84Zm210.63,0a57.85,57.85,0,1,1,57.84-57.85h0a57.82,57.82,0,0,1-57.8,57.84h0Z" transform="translate(-115.93 -225.14)"/></svg>