<svg xmlns="http://www.w3.org/2000/svg" viewBox="0 0 828 705.02"><g id="katman_2" data-name="katman 2"><g id="Objects"><path id="Bird-36" d="M515.2,511.41C530.76,538,547.8,559.87,568.45,579c7.68,7.09,16.86,11.73,27.28,9.72,27.62-5.34,44.74,22.24,71.87,17.79-13.4,14.46-26.58,1.34-39.21,4.3,2.4,24.14,22.51,13.35,33.53,19.5,11.5,6.42,22.15,15.42,19.4,34.62-11.7-24.86-36.57-28.57-50-20.85-21.27,12.24-36.49,1.9-52.08-3.76-27.58-10-54.12-1.73-83.59-4,2.42-1.14,5.19-1.85,7.18-3.51,8.78-7.32,30.69,4.88,27.47-14.19-.81-4.76-20.91-31.35-45.47-12.76,7.64-17.89,20-12.26,32.49-13.88-16.93-25-32.9-48.64-49-72.19-3.11-4.55-7.17-7.81-13.11-8.73-88.66-13.59-175.35-17.32-249.46,46.89-28.11,24.35-56,49.1-85.42,71.77C92.82,650.89,60.38,665.21,40,696c-7.35,11.09-24.89,7.55-40,9,4.77-17.74,17.61-28.34,28.11-39.82,28.18-30.79,58.76-59.22,89-88C181.75,515.8,238.36,447,295.85,379,353.77,310.4,414.34,243.74,484,186.42c30.44-25.07,47.94-58.66,66.34-92,27.59-50,64.48-87.69,125-93.57,24-2.33,48.26-.4,68.34,12.83,19.8,13.05,37.43,13,57.49,3,7.83-3.9,16.91-6.37,26.83-2.78-3.4,9.53-12.46,12.82-19.14,17.81-54.7,40.84-71.33,90.83-50.14,156.78,8.11,25.25,13.78,50.44,13.72,77.2-.22,94.08-51.66,155.47-128.07,200C605.19,488.58,563,504.94,515.2,511.41Zm-19.16.2-9,4.39,53.31,79.43,8.53-5.7C536,560.62,513.46,537.78,496,511.61Zm57.51,93.22c24.31,23.16,38.24,24.36,64.92,5.5C595.73,612.28,577.59,597.25,553.55,604.83Z"/></g></g></svg>